<mxfile host="app.diagrams.net" agent="Mozilla/5.0 (Windows NT 10.0; Win64; x64) AppleWebKit/537.36 (KHTML, like Gecko) Chrome/136.0.0.0 Safari/537.36" version="26.1.3">
  <diagram name="P치gina-1" id="UggPJkZmqfOD0Qh_XLz-">
    <mxGraphModel dx="2611" dy="1955" grid="1" gridSize="10" guides="1" tooltips="1" connect="1" arrows="1" fold="1" page="1" pageScale="1" pageWidth="827" pageHeight="1169" math="0" shadow="0">
      <root>
        <mxCell id="0" />
        <mxCell id="1" parent="0" />
        <mxCell id="AmYnD38H8xkXSLAy4ZOU-1" value="BatallaNaval&lt;div&gt;&lt;br&gt;&lt;/div&gt;" style="swimlane;fontStyle=1;align=center;verticalAlign=top;childLayout=stackLayout;horizontal=1;startSize=26;horizontalStack=0;resizeParent=1;resizeParentMax=0;resizeLast=0;collapsible=1;marginBottom=0;whiteSpace=wrap;html=1;" parent="1" vertex="1">
          <mxGeometry x="370" y="230" width="160" height="248" as="geometry" />
        </mxCell>
        <mxCell id="AmYnD38H8xkXSLAy4ZOU-2" value="&lt;div&gt;&lt;span style=&quot;background-color: transparent; color: light-dark(rgb(0, 0, 0), rgb(255, 255, 255));&quot;&gt;- tablero: Tablero&lt;/span&gt;&lt;/div&gt;&lt;div&gt;&lt;div&gt;&lt;br&gt;&lt;/div&gt;&lt;div&gt;&lt;/div&gt;&lt;/div&gt;" style="text;strokeColor=none;fillColor=none;align=left;verticalAlign=top;spacingLeft=4;spacingRight=4;overflow=hidden;rotatable=0;points=[[0,0.5],[1,0.5]];portConstraint=eastwest;whiteSpace=wrap;html=1;" parent="AmYnD38H8xkXSLAy4ZOU-1" vertex="1">
          <mxGeometry y="26" width="160" height="54" as="geometry" />
        </mxCell>
        <mxCell id="AmYnD38H8xkXSLAy4ZOU-3" value="" style="line;strokeWidth=1;fillColor=none;align=left;verticalAlign=middle;spacingTop=-1;spacingLeft=3;spacingRight=3;rotatable=0;labelPosition=right;points=[];portConstraint=eastwest;strokeColor=inherit;" parent="AmYnD38H8xkXSLAy4ZOU-1" vertex="1">
          <mxGeometry y="80" width="160" height="8" as="geometry" />
        </mxCell>
        <mxCell id="AmYnD38H8xkXSLAy4ZOU-4" value="+ __init__(filas: &lt;span class=&quot;hljs-type&quot;&gt;int&lt;/span&gt;, columnas: &lt;span class=&quot;hljs-type&quot;&gt;int&lt;/span&gt;)&amp;nbsp;&lt;div&gt;+ colocar_barcos(cantidad: &lt;span class=&quot;hljs-type&quot;&gt;int&lt;/span&gt;)&lt;/div&gt;" style="text;strokeColor=none;fillColor=none;align=left;verticalAlign=top;spacingLeft=4;spacingRight=4;overflow=hidden;rotatable=0;points=[[0,0.5],[1,0.5]];portConstraint=eastwest;whiteSpace=wrap;html=1;" parent="AmYnD38H8xkXSLAy4ZOU-1" vertex="1">
          <mxGeometry y="88" width="160" height="160" as="geometry" />
        </mxCell>
        <mxCell id="AmYnD38H8xkXSLAy4ZOU-45" style="edgeStyle=orthogonalEdgeStyle;rounded=0;orthogonalLoop=1;jettySize=auto;html=1;entryX=0;entryY=0.5;entryDx=0;entryDy=0;" parent="1" source="AmYnD38H8xkXSLAy4ZOU-24" target="AmYnD38H8xkXSLAy4ZOU-37" edge="1">
          <mxGeometry relative="1" as="geometry" />
        </mxCell>
        <mxCell id="AmYnD38H8xkXSLAy4ZOU-24" value="Jugador" style="swimlane;fontStyle=1;align=center;verticalAlign=top;childLayout=stackLayout;horizontal=1;startSize=26;horizontalStack=0;resizeParent=1;resizeParentMax=0;resizeLast=0;collapsible=1;marginBottom=0;whiteSpace=wrap;html=1;" parent="1" vertex="1">
          <mxGeometry x="130" y="234" width="170" height="240" as="geometry" />
        </mxCell>
        <mxCell id="AmYnD38H8xkXSLAy4ZOU-25" value="- nombre: str&lt;div&gt;&lt;span style=&quot;background-color: transparent; color: light-dark(rgb(0, 0, 0), rgb(255, 255, 255));&quot;&gt;- CONTRASENIA: str&lt;/span&gt;&lt;/div&gt;&lt;div&gt;&lt;br&gt;&lt;/div&gt;" style="text;strokeColor=none;fillColor=none;align=left;verticalAlign=top;spacingLeft=4;spacingRight=4;overflow=hidden;rotatable=0;points=[[0,0.5],[1,0.5]];portConstraint=eastwest;whiteSpace=wrap;html=1;" parent="AmYnD38H8xkXSLAy4ZOU-24" vertex="1">
          <mxGeometry y="26" width="170" height="54" as="geometry" />
        </mxCell>
        <mxCell id="AmYnD38H8xkXSLAy4ZOU-26" value="" style="line;strokeWidth=1;fillColor=none;align=left;verticalAlign=middle;spacingTop=-1;spacingLeft=3;spacingRight=3;rotatable=0;labelPosition=right;points=[];portConstraint=eastwest;strokeColor=inherit;" parent="AmYnD38H8xkXSLAy4ZOU-24" vertex="1">
          <mxGeometry y="80" width="170" height="8" as="geometry" />
        </mxCell>
        <mxCell id="AmYnD38H8xkXSLAy4ZOU-27" value="+ __init__(nombre: str)&amp;nbsp;&lt;div&gt;+ autenticar(cls, nombre: str, contrasenia: (str)&lt;/div&gt;" style="text;strokeColor=none;fillColor=none;align=left;verticalAlign=top;spacingLeft=4;spacingRight=4;overflow=hidden;rotatable=0;points=[[0,0.5],[1,0.5]];portConstraint=eastwest;whiteSpace=wrap;html=1;" parent="AmYnD38H8xkXSLAy4ZOU-24" vertex="1">
          <mxGeometry y="88" width="170" height="152" as="geometry" />
        </mxCell>
        <mxCell id="AmYnD38H8xkXSLAy4ZOU-34" value="Tablero" style="swimlane;fontStyle=1;align=center;verticalAlign=top;childLayout=stackLayout;horizontal=1;startSize=26;horizontalStack=0;resizeParent=1;resizeParentMax=0;resizeLast=0;collapsible=1;marginBottom=0;whiteSpace=wrap;html=1;" parent="1" vertex="1">
          <mxGeometry x="370" y="-60" width="160" height="248" as="geometry" />
        </mxCell>
        <mxCell id="AmYnD38H8xkXSLAy4ZOU-35" value="&lt;div&gt;- filas: int&lt;/div&gt;&lt;div&gt;- columnas: int&lt;/div&gt;&lt;div&gt;- matriz: list&lt;/div&gt;&lt;div&gt;&lt;br&gt;&lt;/div&gt;" style="text;strokeColor=none;fillColor=none;align=left;verticalAlign=top;spacingLeft=4;spacingRight=4;overflow=hidden;rotatable=0;points=[[0,0.5],[1,0.5]];portConstraint=eastwest;whiteSpace=wrap;html=1;" parent="AmYnD38H8xkXSLAy4ZOU-34" vertex="1">
          <mxGeometry y="26" width="160" height="74" as="geometry" />
        </mxCell>
        <mxCell id="AmYnD38H8xkXSLAy4ZOU-36" value="" style="line;strokeWidth=1;fillColor=none;align=left;verticalAlign=middle;spacingTop=-1;spacingLeft=3;spacingRight=3;rotatable=0;labelPosition=right;points=[];portConstraint=eastwest;strokeColor=inherit;" parent="AmYnD38H8xkXSLAy4ZOU-34" vertex="1">
          <mxGeometry y="100" width="160" height="8" as="geometry" />
        </mxCell>
        <mxCell id="AmYnD38H8xkXSLAy4ZOU-37" value="+ __init__(filas: int, columnas: int)&lt;div&gt;+ mostrar()&lt;/div&gt;&lt;div&gt;+colocar _barco(fila: &lt;span class=&quot;hljs-type&quot;&gt;int&lt;/span&gt;, columna: &lt;span class=&quot;hljs-type&quot;&gt;int&lt;/span&gt;, tama침o: &lt;span class=&quot;hljs-type&quot;&gt;int&lt;/span&gt;, orientacion: str)&lt;br&gt;&lt;div&gt;&lt;br&gt;&lt;/div&gt;&lt;div&gt;&lt;br&gt;&lt;/div&gt;&lt;/div&gt;" style="text;strokeColor=none;fillColor=none;align=left;verticalAlign=top;spacingLeft=4;spacingRight=4;overflow=hidden;rotatable=0;points=[[0,0.5],[1,0.5]];portConstraint=eastwest;whiteSpace=wrap;html=1;" parent="AmYnD38H8xkXSLAy4ZOU-34" vertex="1">
          <mxGeometry y="108" width="160" height="140" as="geometry" />
        </mxCell>
        <mxCell id="AmYnD38H8xkXSLAy4ZOU-44" style="edgeStyle=orthogonalEdgeStyle;rounded=0;orthogonalLoop=1;jettySize=auto;html=1;entryX=0;entryY=0.5;entryDx=0;entryDy=0;" parent="1" source="AmYnD38H8xkXSLAy4ZOU-27" target="AmYnD38H8xkXSLAy4ZOU-4" edge="1">
          <mxGeometry relative="1" as="geometry" />
        </mxCell>
        <mxCell id="0YJP8zsa7M7JijgX_TRi-1" value="Barco" style="swimlane;fontStyle=1;align=center;verticalAlign=top;childLayout=stackLayout;horizontal=1;startSize=26;horizontalStack=0;resizeParent=1;resizeParentMax=0;resizeLast=0;collapsible=1;marginBottom=0;whiteSpace=wrap;html=1;" parent="1" vertex="1">
          <mxGeometry x="600" y="234" width="160" height="240" as="geometry" />
        </mxCell>
        <mxCell id="0YJP8zsa7M7JijgX_TRi-2" value="- tama침o: int" style="text;strokeColor=none;fillColor=none;align=left;verticalAlign=top;spacingLeft=4;spacingRight=4;overflow=hidden;rotatable=0;points=[[0,0.5],[1,0.5]];portConstraint=eastwest;whiteSpace=wrap;html=1;" parent="0YJP8zsa7M7JijgX_TRi-1" vertex="1">
          <mxGeometry y="26" width="160" height="26" as="geometry" />
        </mxCell>
        <mxCell id="0YJP8zsa7M7JijgX_TRi-3" value="" style="line;strokeWidth=1;fillColor=none;align=left;verticalAlign=middle;spacingTop=-1;spacingLeft=3;spacingRight=3;rotatable=0;labelPosition=right;points=[];portConstraint=eastwest;strokeColor=inherit;" parent="0YJP8zsa7M7JijgX_TRi-1" vertex="1">
          <mxGeometry y="52" width="160" height="8" as="geometry" />
        </mxCell>
        <mxCell id="0YJP8zsa7M7JijgX_TRi-4" value="+ __init__(tama침o: int)" style="text;strokeColor=none;fillColor=none;align=left;verticalAlign=top;spacingLeft=4;spacingRight=4;overflow=hidden;rotatable=0;points=[[0,0.5],[1,0.5]];portConstraint=eastwest;whiteSpace=wrap;html=1;" parent="0YJP8zsa7M7JijgX_TRi-1" vertex="1">
          <mxGeometry y="60" width="160" height="180" as="geometry" />
        </mxCell>
        <mxCell id="V6jaxSyoYYLZyo7Vry4e-1" value="Menu" style="swimlane;fontStyle=1;align=center;verticalAlign=top;childLayout=stackLayout;horizontal=1;startSize=26;horizontalStack=0;resizeParent=1;resizeParentMax=0;resizeLast=0;collapsible=1;marginBottom=0;whiteSpace=wrap;html=1;" vertex="1" parent="1">
          <mxGeometry x="-80" y="300" width="160" height="90" as="geometry" />
        </mxCell>
        <mxCell id="V6jaxSyoYYLZyo7Vry4e-2" value="+ mostrar_menu()&lt;div&gt;+ iniciar()&lt;/div&gt;&lt;div&gt;+ iniciar_juego()&lt;/div&gt;&lt;div&gt;&lt;br&gt;&lt;/div&gt;" style="text;strokeColor=none;fillColor=none;align=left;verticalAlign=top;spacingLeft=4;spacingRight=4;overflow=hidden;rotatable=0;points=[[0,0.5],[1,0.5]];portConstraint=eastwest;whiteSpace=wrap;html=1;" vertex="1" parent="V6jaxSyoYYLZyo7Vry4e-1">
          <mxGeometry y="26" width="160" height="64" as="geometry" />
        </mxCell>
        <mxCell id="V6jaxSyoYYLZyo7Vry4e-5" value="Seguridad" style="swimlane;fontStyle=1;align=center;verticalAlign=top;childLayout=stackLayout;horizontal=1;startSize=26;horizontalStack=0;resizeParent=1;resizeParentMax=0;resizeLast=0;collapsible=1;marginBottom=0;whiteSpace=wrap;html=1;" vertex="1" parent="1">
          <mxGeometry x="135" y="542" width="160" height="60" as="geometry" />
        </mxCell>
        <mxCell id="V6jaxSyoYYLZyo7Vry4e-6" value="+ cifrar(clave): str" style="text;strokeColor=none;fillColor=none;align=left;verticalAlign=top;spacingLeft=4;spacingRight=4;overflow=hidden;rotatable=0;points=[[0,0.5],[1,0.5]];portConstraint=eastwest;whiteSpace=wrap;html=1;" vertex="1" parent="V6jaxSyoYYLZyo7Vry4e-5">
          <mxGeometry y="26" width="160" height="26" as="geometry" />
        </mxCell>
        <mxCell id="V6jaxSyoYYLZyo7Vry4e-7" value="" style="line;strokeWidth=1;fillColor=none;align=left;verticalAlign=middle;spacingTop=-1;spacingLeft=3;spacingRight=3;rotatable=0;labelPosition=right;points=[];portConstraint=eastwest;strokeColor=inherit;" vertex="1" parent="V6jaxSyoYYLZyo7Vry4e-5">
          <mxGeometry y="52" width="160" height="8" as="geometry" />
        </mxCell>
        <mxCell id="V6jaxSyoYYLZyo7Vry4e-9" value="Main" style="swimlane;fontStyle=1;align=center;verticalAlign=top;childLayout=stackLayout;horizontal=1;startSize=26;horizontalStack=0;resizeParent=1;resizeParentMax=0;resizeLast=0;collapsible=1;marginBottom=0;whiteSpace=wrap;html=1;" vertex="1" parent="1">
          <mxGeometry x="-280" y="310" width="160" height="70" as="geometry" />
        </mxCell>
        <mxCell id="V6jaxSyoYYLZyo7Vry4e-10" value="+ Menu()&lt;div&gt;+iniciar()&lt;/div&gt;" style="text;strokeColor=none;fillColor=none;align=left;verticalAlign=top;spacingLeft=4;spacingRight=4;overflow=hidden;rotatable=0;points=[[0,0.5],[1,0.5]];portConstraint=eastwest;whiteSpace=wrap;html=1;" vertex="1" parent="V6jaxSyoYYLZyo7Vry4e-9">
          <mxGeometry y="26" width="160" height="44" as="geometry" />
        </mxCell>
        <mxCell id="V6jaxSyoYYLZyo7Vry4e-13" style="edgeStyle=orthogonalEdgeStyle;rounded=0;orthogonalLoop=1;jettySize=auto;html=1;entryX=0;entryY=0.5;entryDx=0;entryDy=0;" edge="1" parent="1" source="V6jaxSyoYYLZyo7Vry4e-10" target="V6jaxSyoYYLZyo7Vry4e-2">
          <mxGeometry relative="1" as="geometry" />
        </mxCell>
        <mxCell id="V6jaxSyoYYLZyo7Vry4e-15" style="edgeStyle=orthogonalEdgeStyle;rounded=0;orthogonalLoop=1;jettySize=auto;html=1;entryX=0.5;entryY=0;entryDx=0;entryDy=0;exitX=0.477;exitY=0.993;exitDx=0;exitDy=0;exitPerimeter=0;" edge="1" parent="1" source="AmYnD38H8xkXSLAy4ZOU-27" target="V6jaxSyoYYLZyo7Vry4e-5">
          <mxGeometry relative="1" as="geometry">
            <Array as="points">
              <mxPoint x="211" y="542" />
            </Array>
          </mxGeometry>
        </mxCell>
        <mxCell id="V6jaxSyoYYLZyo7Vry4e-17" style="edgeStyle=orthogonalEdgeStyle;rounded=0;orthogonalLoop=1;jettySize=auto;html=1;entryX=0.496;entryY=0.994;entryDx=0;entryDy=0;entryPerimeter=0;" edge="1" parent="1" source="AmYnD38H8xkXSLAy4ZOU-1" target="AmYnD38H8xkXSLAy4ZOU-37">
          <mxGeometry relative="1" as="geometry" />
        </mxCell>
        <mxCell id="V6jaxSyoYYLZyo7Vry4e-18" style="edgeStyle=orthogonalEdgeStyle;rounded=0;orthogonalLoop=1;jettySize=auto;html=1;entryX=0.5;entryY=0;entryDx=0;entryDy=0;" edge="1" parent="1" source="AmYnD38H8xkXSLAy4ZOU-37" target="0YJP8zsa7M7JijgX_TRi-1">
          <mxGeometry relative="1" as="geometry" />
        </mxCell>
        <mxCell id="V6jaxSyoYYLZyo7Vry4e-19" style="edgeStyle=orthogonalEdgeStyle;rounded=0;orthogonalLoop=1;jettySize=auto;html=1;entryX=0.017;entryY=0.231;entryDx=0;entryDy=0;entryPerimeter=0;" edge="1" parent="1" source="V6jaxSyoYYLZyo7Vry4e-2" target="AmYnD38H8xkXSLAy4ZOU-27">
          <mxGeometry relative="1" as="geometry">
            <mxPoint x="80" y="384" as="sourcePoint" />
          </mxGeometry>
        </mxCell>
      </root>
    </mxGraphModel>
  </diagram>
</mxfile>
